<?xml version="1.0" encoding="UTF-8"?><svg id="_レイヤー_2" xmlns="http://www.w3.org/2000/svg" viewBox="0 0 179.84 28.68"><defs><style>.cls-1{fill:#e2768d;}.cls-2{fill:#628f62;}.cls-3{fill:#262626;}</style></defs><g id="_レイヤー_1-2"><path class="cls-3" d="m60.2,26.76l-.76-3.03v3.29c0,.18-.04.32-.12.41s-.19.14-.32.14-.24-.05-.32-.13c-.08-.09-.12-.23-.12-.41v-3.77c0-.21.05-.35.16-.42.11-.07.25-.11.44-.11h.3c.18,0,.31.02.39.05.08.03.14.09.18.18.04.08.08.22.13.41l.69,2.61.69-2.61c.05-.19.09-.33.13-.41.04-.08.1-.14.18-.18s.21-.05.39-.05h.3c.18,0,.33.04.44.11.11.07.16.21.16.42v3.77c0,.18-.04.32-.12.41s-.19.14-.33.14c-.13,0-.23-.05-.32-.14s-.12-.23-.12-.41v-3.29l-.76,3.03c-.05.2-.09.34-.12.43-.03.09-.09.18-.17.25-.08.08-.2.11-.35.11-.11,0-.21-.02-.29-.07-.08-.05-.14-.11-.18-.19-.04-.08-.08-.16-.1-.25-.02-.09-.05-.19-.08-.29Z"/><path class="cls-3" d="m69.05,26.94l-.23-.6h-1.94l-.23.61c-.09.24-.16.4-.23.48-.06.08-.17.12-.31.12-.12,0-.23-.04-.32-.13-.09-.09-.14-.19-.14-.3,0-.06.01-.13.03-.2.02-.07.06-.17.11-.29l1.22-3.09c.03-.09.08-.2.12-.32.05-.12.1-.23.16-.31s.13-.15.22-.2c.09-.05.2-.08.33-.08s.25.03.34.08c.09.05.16.12.22.2.06.08.1.17.14.26.04.09.09.21.14.37l1.24,3.07c.1.23.15.4.15.51s-.05.21-.14.3c-.09.09-.2.14-.33.14-.08,0-.14-.01-.2-.04s-.1-.06-.14-.11c-.04-.05-.08-.12-.12-.21s-.08-.18-.11-.25Zm-1.91-1.32h1.42l-.72-1.97-.7,1.97Z"/><path class="cls-3" d="m75.78,23.46h-2.17v1.17h2c.15,0,.26.03.33.1.07.07.11.15.11.26s-.04.2-.11.26c-.07.07-.18.1-.33.1h-2v1.35h2.25c.15,0,.27.04.34.11.08.07.12.16.12.28s-.04.2-.12.27c-.08.07-.19.11-.34.11h-2.62c-.21,0-.36-.05-.45-.14s-.14-.24-.14-.45v-3.58c0-.14.02-.25.06-.34.04-.09.11-.15.19-.19.09-.04.2-.06.34-.06h2.55c.15,0,.27.03.34.1.07.07.11.16.11.27s-.04.2-.11.27c-.07.07-.19.1-.34.1Z"/><path class="cls-3" d="m79.54,22.71h1.26c.33,0,.61.03.84.09.23.06.45.17.64.34.5.42.74,1.07.74,1.94,0,.29-.02.55-.07.78-.05.24-.13.45-.23.64-.1.19-.24.36-.4.51-.13.11-.27.21-.42.28-.15.07-.31.12-.49.15-.17.03-.37.04-.59.04h-1.26c-.18,0-.31-.03-.4-.08-.09-.05-.15-.13-.17-.22-.03-.1-.04-.22-.04-.38v-3.49c0-.21.05-.36.14-.45.09-.09.24-.14.45-.14Zm.37.76v3.23h.73c.16,0,.29,0,.38-.01.09,0,.19-.03.28-.06.1-.03.18-.08.25-.15.32-.27.48-.74.48-1.41,0-.47-.07-.82-.21-1.06-.14-.23-.32-.38-.52-.45-.21-.06-.46-.1-.75-.1h-.64Z"/><path class="cls-3" d="m88.78,26.94l-.23-.6h-1.94l-.23.61c-.09.24-.16.4-.23.48-.06.08-.17.12-.31.12-.12,0-.23-.04-.32-.13-.09-.09-.14-.19-.14-.3,0-.06.01-.13.03-.2.02-.07.06-.17.11-.29l1.22-3.09c.03-.09.08-.2.12-.32.05-.12.1-.23.16-.31s.13-.15.22-.2c.09-.05.2-.08.33-.08s.25.03.34.08c.09.05.16.12.22.2.06.08.1.17.14.26.04.09.09.21.14.37l1.24,3.07c.1.23.15.4.15.51s-.05.21-.14.3c-.09.09-.2.14-.33.14-.08,0-.14-.01-.2-.04s-.1-.06-.14-.11c-.04-.05-.08-.12-.12-.21-.04-.1-.08-.18-.11-.25Zm-1.91-1.32h1.42l-.72-1.97-.7,1.97Z"/><path class="cls-3" d="m98.7,22.71h1.26c.33,0,.61.03.84.09.23.06.45.17.64.34.5.42.74,1.07.74,1.94,0,.29-.02.55-.07.78-.05.24-.13.45-.23.64-.1.19-.24.36-.4.51-.13.11-.27.21-.42.28-.15.07-.31.12-.49.15-.17.03-.37.04-.59.04h-1.26c-.18,0-.31-.03-.4-.08-.09-.05-.15-.13-.17-.22-.03-.1-.04-.22-.04-.38v-3.49c0-.21.05-.36.14-.45.09-.09.24-.14.45-.14Zm.37.76v3.23h.73c.16,0,.29,0,.38-.01.09,0,.19-.03.28-.06.1-.03.18-.08.25-.15.32-.27.48-.74.48-1.41,0-.47-.07-.82-.21-1.06-.14-.23-.32-.38-.52-.45-.21-.06-.46-.1-.75-.1h-.64Z"/><path class="cls-3" d="m108.02,23.46h-2.17v1.17h2c.15,0,.26.03.33.1.07.07.11.15.11.26s-.04.2-.11.26c-.07.07-.18.1-.33.1h-2v1.35h2.25c.15,0,.27.04.34.11.08.07.12.16.12.28s-.04.2-.12.27c-.08.07-.19.11-.34.11h-2.62c-.21,0-.36-.05-.45-.14s-.14-.24-.14-.45v-3.58c0-.14.02-.25.06-.34.04-.09.11-.15.19-.19.09-.04.2-.06.34-.06h2.55c.15,0,.27.03.34.1.07.07.11.16.11.27s-.04.2-.11.27c-.07.07-.19.1-.34.1Z"/><path class="cls-3" d="m112.44,23.21l1.85,2.81v-2.83c0-.18.04-.32.12-.41.08-.09.19-.14.32-.14s.25.05.33.14c.08.09.12.23.12.41v3.75c0,.42-.17.63-.52.63-.09,0-.16-.01-.23-.04-.07-.02-.13-.06-.19-.12-.06-.05-.12-.12-.17-.19s-.1-.15-.16-.22l-1.81-2.77v2.79c0,.18-.04.32-.13.41s-.19.14-.33.14-.25-.05-.33-.14c-.08-.09-.12-.23-.12-.41v-3.67c0-.16.02-.28.05-.37.04-.1.11-.18.2-.24.1-.06.2-.09.31-.09.09,0,.16.01.22.04.06.03.12.07.16.11s.09.11.14.19c.05.08.1.15.15.24Z"/><path class="cls-3" d="m121.19,23.51h-1.05v3.46c0,.2-.04.35-.13.44-.09.1-.2.14-.34.14s-.26-.05-.35-.15c-.09-.1-.14-.24-.14-.44v-3.46h-1.05c-.16,0-.29-.04-.37-.11-.08-.07-.12-.17-.12-.29s.04-.22.12-.29c.08-.07.2-.11.36-.11h3.07c.17,0,.29.04.37.11.08.07.12.17.12.29s-.04.21-.12.29c-.08.07-.21.11-.37.11Z"/><path class="cls-3" d="m127.17,26.94l-.23-.6h-1.94l-.23.61c-.09.24-.16.4-.23.48-.06.08-.17.12-.31.12-.12,0-.23-.04-.32-.13-.09-.09-.14-.19-.14-.3,0-.06.01-.13.03-.2.02-.07.06-.17.11-.29l1.22-3.09c.03-.09.08-.2.12-.32.05-.12.1-.23.16-.31s.13-.15.22-.2c.09-.05.2-.08.33-.08s.25.03.34.08c.09.05.16.12.22.2.06.08.1.17.14.26.04.09.09.21.14.37l1.24,3.07c.1.23.15.4.15.51s-.05.21-.14.3c-.09.09-.2.14-.33.14-.08,0-.14-.01-.2-.04s-.1-.06-.14-.11c-.04-.05-.08-.12-.12-.21s-.08-.18-.11-.25Zm-1.91-1.32h1.42l-.72-1.97-.7,1.97Z"/><path class="cls-3" d="m131.71,23.22v3.47h1.96c.16,0,.28.04.36.11.08.08.12.17.12.29s-.04.21-.12.28c-.08.07-.2.11-.36.11h-2.33c-.21,0-.36-.05-.45-.14s-.14-.24-.14-.45v-3.67c0-.19.04-.34.13-.44.09-.1.2-.15.35-.15s.26.05.35.14c.09.1.13.24.13.44Z"/><path class="cls-3" d="m146.29,25.97c0,.15-.04.32-.11.49-.07.18-.19.35-.35.52-.16.17-.36.31-.61.41-.25.11-.54.16-.87.16-.25,0-.48-.02-.69-.07-.21-.05-.39-.12-.56-.22s-.32-.23-.46-.4c-.12-.15-.23-.32-.32-.5-.09-.18-.16-.38-.2-.59-.04-.21-.07-.43-.07-.67,0-.38.06-.73.17-1.03.11-.3.27-.56.48-.78.21-.22.45-.38.73-.49.28-.11.58-.17.89-.17.39,0,.73.08,1.03.23.3.15.53.34.69.57.16.23.24.44.24.64,0,.11-.04.21-.12.29-.08.08-.17.13-.28.13-.12,0-.22-.03-.28-.09-.06-.06-.13-.16-.21-.3-.13-.24-.27-.41-.44-.53-.17-.12-.38-.18-.63-.18-.4,0-.71.15-.95.45-.23.3-.35.73-.35,1.28,0,.37.05.68.16.92.1.25.25.43.44.55.19.12.41.18.67.18.28,0,.51-.07.7-.21s.34-.34.43-.61c.04-.13.09-.23.15-.31.06-.08.16-.12.29-.12.11,0,.21.04.3.12.08.08.12.18.12.3Z"/><path class="cls-3" d="m149.96,23.22v3.47h1.96c.16,0,.28.04.36.11.08.08.12.17.12.29s-.04.21-.12.28c-.08.07-.2.11-.36.11h-2.33c-.21,0-.36-.05-.45-.14s-.14-.24-.14-.45v-3.67c0-.19.04-.34.13-.44.09-.1.2-.15.35-.15s.26.05.35.14c.09.1.13.24.13.44Z"/><path class="cls-3" d="m154.93,26.97v-3.75c0-.19.04-.34.13-.44.09-.1.2-.15.34-.15s.26.05.35.14c.09.1.13.24.13.44v3.75c0,.2-.04.34-.13.44-.09.1-.21.15-.35.15s-.25-.05-.34-.15c-.09-.1-.13-.25-.13-.44Z"/><path class="cls-3" d="m160.09,23.21l1.85,2.81v-2.83c0-.18.04-.32.12-.41.08-.09.19-.14.32-.14s.25.05.33.14c.08.09.12.23.12.41v3.75c0,.42-.17.63-.52.63-.09,0-.16-.01-.23-.04-.07-.02-.13-.06-.19-.12-.06-.05-.12-.12-.17-.19s-.1-.15-.16-.22l-1.81-2.77v2.79c0,.18-.04.32-.13.41s-.19.14-.33.14-.25-.05-.33-.14c-.08-.09-.12-.23-.12-.41v-3.67c0-.16.02-.28.05-.37.04-.1.11-.18.2-.24.1-.06.2-.09.31-.09.09,0,.16.01.22.04.06.03.12.07.16.11s.09.11.14.19c.05.08.1.15.15.24Z"/><path class="cls-3" d="m165.79,26.97v-3.75c0-.19.04-.34.13-.44.09-.1.2-.15.34-.15s.26.05.35.14c.09.1.13.24.13.44v3.75c0,.2-.04.34-.13.44-.09.1-.21.15-.35.15s-.25-.05-.34-.15c-.09-.1-.13-.25-.13-.44Z"/><path class="cls-3" d="m173.76,25.97c0,.15-.04.32-.11.49s-.19.35-.35.52c-.16.17-.36.31-.61.41-.25.11-.54.16-.87.16-.25,0-.48-.02-.69-.07-.21-.05-.39-.12-.56-.22s-.32-.23-.46-.4c-.12-.15-.23-.32-.32-.5-.09-.18-.16-.38-.2-.59-.04-.21-.07-.43-.07-.67,0-.38.06-.73.17-1.03.11-.3.27-.56.48-.78.21-.22.45-.38.73-.49.28-.11.58-.17.89-.17.39,0,.73.08,1.03.23.3.15.53.34.69.57.16.23.24.44.24.64,0,.11-.04.21-.12.29-.08.08-.17.13-.28.13-.12,0-.22-.03-.28-.09-.06-.06-.13-.16-.21-.3-.13-.24-.27-.41-.44-.53-.17-.12-.38-.18-.63-.18-.4,0-.71.15-.95.45-.23.3-.35.73-.35,1.28,0,.37.05.68.16.92.1.25.25.43.44.55.19.12.41.18.67.18.28,0,.51-.07.7-.21.19-.14.34-.34.43-.61.04-.13.09-.23.15-.31.06-.08.16-.12.29-.12.11,0,.21.04.3.12.08.08.12.18.12.3Z"/><path class="cls-3" d="m57.6.3c.42.71.77,1.37,1.04,1.95h3.03c.29-.47.62-1.1.99-1.88.13-.29.33-.38.62-.33l.69.15c.35.07.46.31.29.64-.22.42-.49.89-.79,1.42h4.29c.33,0,.49.16.49.49,0,.29-.16.44-.49.44h-15.3c-.33,0-.49-.16-.49-.49,0-.29.16-.44.49-.44h4.36c-.29-.57-.55-1.04-.77-1.42-.16-.31-.07-.55.27-.64l.62-.16c.29-.07.49.02.64.27Zm.51,15.94c-.18,0-.68-.02-1.53-.07-.33-.02-.49-.2-.49-.51,0-.33.18-.49.53-.47.49.04.69.02.97.02.53,0,.84-.38.84-1.13v-1.79h-3.69v3.52c0,.33-.16.49-.49.49h-.82c-.33,0-.49-.16-.49-.49V5.17c0-.33.16-.49.49-.49h6.28c.33,0,.49.16.49.49v8.96c0,1.95-.09,2.1-2.08,2.1Zm.31-10.63h-3.69v2.43h3.69v-2.43Zm0,3.29h-3.69v2.52h3.69v-2.52Zm4.38,4.18h-.8c-.33,0-.49-.16-.49-.49v-7.1c0-.33.16-.49.49-.49h.8c.33,0,.49.16.49.49v7.1c0,.33-.16.49-.49.49Zm2.39,3.21c-.46,0-1.1-.02-1.75-.07-.31-.02-.49-.2-.49-.51v-.04c0-.35.16-.51.51-.49.6.05,1.17.07,1.57.07.57,0,.6-.04.6-1.2V4.93c0-.33.16-.49.49-.49h.82c.33,0,.49.16.49.49v9.18c0,1.88-.25,2.17-2.24,2.17Z"/><path class="cls-3" d="m111.56,1.7c0,.26-.16.38-.49.38h-5.35v1.57h6.46c.33,0,.49.16.49.49,0,.29-.16.46-.49.46h-15.04c-.33,0-.49-.16-.49-.49,0-.29.16-.46.49-.46h2.3V1.05c0-.33.16-.49.49-.49h.84c.33,0,.49.16.49.49v2.61h2.57V.61c0-.33.16-.49.49-.49h.89c.33,0,.49.16.49.49v.6h5.35c.33,0,.49.16.49.49Zm.13,14.95h-.84c-.33,0-.49-.16-.49-.49v-.29h-11.39v.29c0,.33-.16.49-.49.49h-.84c-.33,0-.49-.16-.49-.49V6.03c0-.33.16-.49.49-.49h.84c.33,0,.49.16.49.49v8.95h11.39V6.03c0-.33.16-.49.49-.49h.84c.33,0,.49.16.49.49v10.13c0,.33-.16.49-.49.49Zm-1.7-7.23c0,.22-.16.35-.49.35h-3.25c1.26.99,2.45,2.04,3.58,3.16.24.24.24.47.02.69l-.24.26c-.24.26-.47.26-.71,0-1.37-1.48-2.5-2.57-3.41-3.34v3.23c0,.33-.16.49-.49.49h-.66c-.33,0-.49-.16-.49-.49v-2.85c-.91,1-2.1,1.99-3.58,2.92-.27.16-.51.11-.69-.15l-.09-.13c-.18-.27-.13-.51.15-.68,1.37-.88,2.56-1.9,3.56-3.12h-3.36c-.33,0-.49-.16-.49-.49,0-.22.16-.35.49-.35h3.96v-3.12c0-.33.16-.49.49-.49h.79c.33,0,.49.16.49.49v3.12h3.94c.33,0,.49.16.49.49Zm-8.63-3.71c.55.68,1,1.26,1.39,1.79.2.26.15.51-.11.69l-.33.24c-.26.18-.51.13-.69-.13-.53-.71-.95-1.31-1.33-1.81-.2-.26-.16-.48.11-.68l.27-.2c.26-.18.49-.15.69.09Zm7.78.82c-.37.53-.84,1.15-1.44,1.81-.22.24-.46.26-.69.07l-.26-.18c-.25-.18-.27-.44-.07-.69.44-.51.88-1.11,1.28-1.77.18-.29.42-.35.68-.16l.37.26c.26.18.33.42.15.68Z"/><path class="cls-3" d="m119.48,2.49c-.33.04-.51-.13-.55-.46-.02-.26.13-.42.46-.46,1.86-.18,3.69-.47,5.57-.97.31-.07.51.02.6.31.07.29-.06.49-.37.57-.73.2-1.52.38-2.35.53v3.2h1.97c.33,0,.49.16.49.49,0,.29-.16.44-.49.44h-1.59c.8,1.52,1.5,2.81,1.97,3.67.15.27.09.49-.16.68l-.44.29c-.27.18-.51.11-.66-.2-.37-.8-.75-1.53-1.1-2.32v7.8c0,.33-.16.49-.49.49h-.53c-.33,0-.49-.16-.49-.49v-6.13c-.51,1.2-1.04,2.21-1.64,3.21-.2.33-.48.33-.68.02l-.35-.51c-.15-.22-.16-.44-.02-.68,1.1-1.84,1.95-3.82,2.5-5.82h-1.92c-.33,0-.49-.16-.49-.49,0-.29.16-.44.49-.44h2.03v-2.92c-.46.05-1.04.15-1.77.2Zm16.05,8.47v.02c0,.31-.13.49-.42.55l-1.39.24v4.29c0,.33-.16.49-.49.49h-.84c-.33,0-.49-.16-.49-.49v-3.96l-7.21,1.22c-.31.05-.51-.09-.55-.42v-.04c-.04-.31.11-.49.42-.55l7.34-1.24V.97c0-.33.16-.49.49-.49h.84c.33,0,.49.16.49.49v9.77l1.24-.2c.33-.05.53.09.57.42Zm-8.63-5.09c1.15,1.1,2.14,2.08,2.99,3.03.22.24.2.47-.02.69l-.4.4c-.24.24-.48.22-.69-.04-.95-1.1-1.9-2.12-2.88-3.05-.24-.24-.24-.47-.02-.69l.31-.33c.22-.24.48-.24.71-.02Zm1.59-4.16c1.08,1.02,1.95,1.99,2.74,2.83.2.24.22.47-.02.69l-.38.36c-.24.24-.47.22-.69-.04-.88-1.04-1.75-1.97-2.65-2.81-.24-.24-.26-.47-.02-.71l.31-.31c.22-.22.48-.24.71-.02Z"/><path class="cls-3" d="m156.9,1.39c0,.31-.16.48-.49.48h-12.82v12.89h13c.33,0,.49.16.49.49,0,.31-.16.47-.49.47h-13v.33c0,.33-.16.49-.49.49h-.8c-.33,0-.49-.16-.49-.49V1.41c0-.33.16-.49.49-.49h14.11c.33,0,.49.16.49.47Zm-8.85,1.33c-.16.33-.27.58-.42.84h7.83c.33,0,.49.16.49.49,0,.26-.16.38-.49.38h-4.27v3.16h5.04c.33,0,.49.16.49.49,0,.29-.16.44-.49.44h-4.93c.47,2.08,2.12,3.67,4.71,4.73.33.13.38.37.24.66l-.04.07c-.16.26-.38.33-.66.24-2.47-.89-4.31-2.37-5.22-3.98-1,1.61-2.9,3.09-5.4,3.98-.27.09-.49.02-.66-.24l-.04-.05c-.16-.31-.07-.55.24-.66,2.66-1.04,4.31-2.57,4.82-4.75h-4.98c-.33,0-.49-.16-.49-.49,0-.29.16-.44.49-.44h5.09v-3.16h-2.26c-.42.69-.93,1.41-1.61,2.17-.2.22-.44.26-.69.09l-.35-.22c-.27-.18-.31-.44-.11-.69.71-.88,1.37-1.97,2.06-3.43.13-.26.31-.37.6-.33l.68.07c.37.04.49.29.33.62Z"/><path class="cls-3" d="m168.91,2.31c-.97,2.46-1.41,3.34-1.75,4.22,1.33,1.62,1.64,2.61,1.64,4.05,0,1.53-.73,2.32-2.56,2.32-.27,0-.44-.15-.49-.44-.06-.29.11-.48.46-.48h-.15c.79,0,1.1-.33,1.1-1.68s-.37-2.17-1.33-3.45c-.18-.22-.2-.42-.09-.68.58-1.33,1.22-2.79,1.66-4.33h-2.17v14.08c0,.33-.16.49-.49.49h-.62c-.33,0-.49-.16-.49-.49V1.47c0-.33.16-.49.49-.49h4.44c.33,0,.49.16.49.49v.22c0,.22-.04.38-.13.62Zm10.3,6.5c0,.33-.16.49-.49.49h-2.5v5.09c0,.84-.13.82.89.82.58,0,.68,0,.86-.49.07-.2.15-1,.18-2.32.02-.35.2-.51.53-.48l.71.07c.31.04.46.2.46.53-.02.55-.02.88-.07,1.42-.06.71-.06,1.44-.66,1.92-.22.18-.58.2-.82.26-.16.04-.97.05-1.24.05-2.28,0-2.65-.22-2.65-1.33v-5.55h-1.06c-.04,3.82-1.22,5.59-4.97,7.01-.27.11-.49.04-.66-.22l-.06-.11c-.18-.29-.09-.53.22-.66,2.68-1.08,3.61-2.61,3.69-6.02h-1.7c-.33,0-.49-.16-.49-.49,0-.31.16-.47.49-.47h8.84c.33,0,.49.16.49.47Zm.25-6.1v2.45c0,.33-.16.49-.49.49h-.84c-.33,0-.49-.16-.49-.49v-2.01h-6.7v2.01c0,.33-.16.49-.49.49h-.79c-.33,0-.49-.16-.49-.49v-2.45c0-.33.16-.49.49-.49h3.52V.68c0-.33.16-.49.49-.49h.88c.33,0,.49.16.49.49v1.53h3.92c.33,0,.49.16.49.49Zm-2.14,2.74c0,.31-.16.47-.49.47h-5.06c-.33,0-.49-.16-.49-.49,0-.29.16-.44.49-.44h5.06c.33,0,.49.16.49.46Z"/><path class="cls-3" d="m89.29,1.43h-13.8c-.33,0-.49.16-.49.49v13.67c0,.33.16.49.49.49h.84c.33,0,.49-.16.49-.49v-.68h11.14v.68c0,.33.16.49.49.49h.84c.33,0,.49-.16.49-.49V1.92c0-.33-.16-.49-.49-.49Zm-1.33,4.34v8.22h-11.14V2.4h11.14v3.37Z"/><path class="cls-3" d="m87.23,8.19c-2.67,0-4.83-2.16-4.83-4.83,0,2.67-2.16,4.83-4.83,4.83,2.67,0,4.83,2.16,4.83,4.83,0-2.67,2.16-4.83,4.83-4.83Z"/><path class="cls-1" d="m42.45,10.44s.01-.1.03-.14c.81-2.79-.23-6.07-3.69-5.75-.19.02-.38-.04-.53-.17-2.37-2.09-4.59-3.96-8.09-2.77-.19.06-.39.05-.56-.05-.93-.53-1.7-1.46-2.89-1.56-.04,0-.08,0-.13,0-3.03.31-4.41,3.64-5.81,5.87-.02.03-.04.06-.05.09-1.04,2.41-.09,4.89-.32,7.44-.33,2.76-2.31,9.82,1.03,11.49.23.11.5.1.71-.05,1.57-1.14,1.84-2.61,3.24-3.91.01-.01.02-.02.04-.04,1.28-1.43,3.32-1.6,3.72.57,0,.05.05.21.06.26.92,2.37-2.24,9.43,2.65,4.94.02-.02.04-.04.06-.06,1.73-2.01,3.52-4,4.8-6.31.02-.04.04-.08.05-.12.55-1.61,2.35-2.3,3.4-3.45.01-.02.03-.03.04-.04,1.73-1.54,2.1-4.05,2.24-6.26Zm-13.95-3.49s-.01,0-.02,0c-.48-.06-.84.14-1.34.25h0s0,0,0,0c-.15.01-.14-.1-.14-.12,0,0,0,0,0,0h0c.17-.74.89-1.33,1.67-1.19.77.14,1.25.88,1.23,1.62,0,.09-.1.14-.18.1-.42-.23-.78-.55-1.23-.66Zm-.99,3.72s.02-.06.03-.1c0-.15.03-.29.13-.38.91-2.22,3.52-.9,5.27.25.85.55,1.15,1.69.63,2.56-1.65,2.77-6.81,1.37-6.06-2.33Zm9.16.31s-.09.1-.19,0c0,0,0,0,0,0h0c-.28-.43-.41-.82-.8-1.1,0,0,0,0-.01,0-.4-.24-.88-.25-1.34-.36-.09-.02-.12-.13-.06-.19.49-.56,1.35-.77,2-.34.67.44.78,1.36.4,2.02h0s0,0,0,0Z"/><path class="cls-2" d="m22.48,13.65c-.32-2.54.56-5.05-.57-7.43-.02-.03-.03-.06-.05-.09-1.47-2.18-2.96-5.47-6-5.68-.04,0-.08,0-.13,0-1.18.14-1.92,1.09-2.83,1.66-.17.1-.37.13-.56.07-3.54-1.08-5.69.87-7.99,3.03-.14.13-.33.2-.52.18C.35,5.19-.58,8.5.32,11.27c.01.05.03.09.03.14.21,2.2.67,4.69,2.45,6.18.02.01.03.03.04.04,1.08,1.12,2.91,1.75,3.51,3.34.01.04.03.08.05.11,1.35,2.27,3.21,4.2,5,6.15.02.02.04.04.06.06,5.04,4.32,1.64-2.62,2.49-5.03.02-.05.05-.21.06-.26.33-2.18,2.37-2.08,3.7-.7.01.01.02.02.04.03,1.45,1.26,1.76,2.72,3.37,3.8.21.14.49.15.71.03,3.29-1.78,1.08-8.78.66-11.52Zm-13.8-3.38c-.46.12-.94.14-1.34.37,0,0,0,0-.01,0-.39.29-.51.68-.79,1.11h0s0,0,0,0c-.1.11-.17.03-.19,0,0,0,0,0,0,0h0c-.39-.65-.28-1.58.39-2.02.65-.43,1.51-.23,2.01.33.06.07.02.17-.06.19Zm6.14.57c-.21.57-.8,1.42-2.45,1.93-.72.22-1.31.3-1.79.3-.62,0-1.06-.13-1.36-.28-.27-.13-.31-.49-.09-.69l.25-.22s0,0,0,0c0,0,.73.7,2.75.07,1.93-.6,1.97-1.64,1.97-1.68h0s.33,0,.33,0c.3,0,.51.29.41.57Zm1.07-2.8s0,0,0,0h0c-.5-.12-.86-.31-1.34-.25,0,0-.01,0-.02,0-.45.1-.81.43-1.22.66-.08.04-.17,0-.18-.1-.03-.74.45-1.49,1.21-1.63.79-.15,1.51.44,1.68,1.18h0s0,0,0,0c0,.02,0,.13-.14.12Z"/></g></svg>